<svg width="600" height="660" version="1.1" xmlns="http://www.w3.org/2000/svg" xmlns:xlink="http://www.w3.org/1999/xlink">
<defs>
<radialGradient id="sheen" cx="221" cy="226" fx="221" fy="226" r="300" gradientTransform="matrix(1.353218,0,0,1.348928,-77,-85)" gradientUnits="userSpaceOnUse">
<stop stop-color="#FFF" stop-opacity=".31"/>
<stop offset="0.19" stop-color="#FFF" stop-opacity=".25"/>
<stop offset="0.6" stop-color="#6B6B6B" stop-opacity=".13"/>
<stop offset="1" stop-color="#000" stop-opacity=".13"/>
</radialGradient>
</defs>
<g fill="#E20909">
<path id="shield" d="M1.5 1.5h597V280A570 445 0 0 1 300 658.5 570 445 0 0 1 1.5 280Z"/>
</g>
<g id="flower" transform="translate(300,476)">
	<path d="m 0,-117.48 c 0,-.05 -10.23,18.9 -19.61,25.79 -16.5,12.13 -20.06,26.69 -7.71,40.52 5.72,6.41 6.39,10.13 1.81,15.05 -5.42,5.19 -11.16,1.48 -14.81,-5.2 -9.34,-16.01 -24.34,-17.11 -40.98,-5.17 -9.46,6.79 -20.01,8.53 -30.75,10.63 -.05,-.02 14.83,15.56 18.5,26.6 6.44,19.44 19.2,27.31 36.17,19.85 6.66,-2.92 14.02,-2.35 14.88,2.96 .87,5.83 -.52,10.87 -9.45,12.84 -18.12,3.93 -23.79,17.79 -17.57,37.3 3.53,11.09 .67,32.44 .7,32.4 9.93,-4.61 19.48,-9.42 31.12,-9.49 20.48,-.11 31.17,-9.75 30.13,-28.22 -.68,-11.92 5.11,-13.01 7.9,-13.29 3.32,.11 8.94,2.55 7.94,13.29 -1.86,18.44 9.64,28.11 30.12,28.22 11.64,.07 21.2,4.88 31.12,9.49 .03,.04 -2.83,-21.31 .7,-32.4 6.22,-19.51 .51,-33.37 -17.61,-37.3 -7.2,-1.47 -12.52,-6.04 -10.11,-11.89 2.52,-6.09 7.86,-7.21 15.28,-3.91 16.98,7.46 29.74,-.41 36.18,-19.85 3.66,-11.04 18.55,-26.62 18.5,-26.6 -10.74,-2.1 -21.3,-3.84 -30.75,-10.63 -16.64,-11.94 -31.91,-11.17 -41.98,6.84 -3.78,7.05 -10.88,7.35 -15.14,2.55 -3.6,-4.44 -1.39,-9.42 2.77,-13.89 12.35,-13.83 8.75,-28.42 -7.75,-40.55 -9.38,-6.89 -14.28,-16.38 -19.6,-25.94 Z m 0,103.14 a 14.34 14.34 0 1 1 -.02,0 Z" fill="#FFF" stroke="#000" stroke-width="3.5"/>
	<path id="motif" d="M0-94.3c.76 0 .56 2.6 1.5 4.99.96 2.31 2.55 3.71 2.55 6.88C4.05-79.2.56-76.02 0-76.02s-4.05-3.18-4.05-6.41c0-3.17 1.59-4.57 2.55-6.88.94-2.39.74-4.99 1.5-4.99ZM-19.96-74.35c0-.76 2.6-.56 4.99-1.5 2.31-.96 3.71-2.55 6.88-2.55 3.23 0 6.41 3.49 6.41 4.05s-3.18 4.06-6.41 4.05c-3.17 0-4.57-1.59-6.88-2.55-2.39-.94-4.99-.74-4.99-1.5Zm39.92 0c0 .76-2.6.56-4.99 1.5-2.31.96-3.71 2.55-6.88 2.55-3.23 0-6.41-3.49-6.41-4.05s3.18-4.06 6.41-4.05c3.17 0 4.57 1.59 6.88 2.55 2.39.94 4.99.74 4.99 1.5ZM0-71.54C4.84-55.78 7.07-48.9 13.33-45.59c3.25 1.56 2.95 2.23.56 1.89-2.21-.33-4.97-1-6.45-1.41.64 2.92 1.63 4.43 3.27 5.84 1.74 1.4 1.94 2.47-3.3 2.14-.96-.14-2.37-.93-3.43-1.85a4.49 18.64 0 0 1-7.96 0c-1.06.92-2.47 1.71-3.43 1.85-5.24.33-5.04-.74-3.3-2.14 1.64-1.41 2.63-2.92 3.27-5.84-1.48.41-4.24 1.08-6.45 1.41-2.39.34-2.69-.33.56-1.89C-7.07-48.9-4.84-55.78 0-71.54Z"/>
	<g id="motif2">
	<use xlink:href="#motif" transform="rotate(72)"/>
	<use xlink:href="#motif" transform="rotate(144)"/>
	</g>
	<use xlink:href="#motif2" transform="scale(-1,1)"/>
</g>
<use xlink:href="#flower" x="-139.35" y="-295.17"/>
<use xlink:href="#flower" x="139.35" y="-295.17"/>

<use xlink:href="#shield" fill="url(#sheen)" stroke="#000" stroke-width="3"/>
</svg>