<svg id="Layer_1" data-name="Layer 1" xmlns="http://www.w3.org/2000/svg" viewBox="0 0 315.14 82.16"><title>UMBC</title><path d="M64.59,12C53.35,6.16,38.66,5.86,35.84,5.86H34.91c-2.83,0-17.51.29-28.76,6.11l-1.55.8V45.45A32.31,32.31,0,0,0,9.08,58.29c3.64,6.14,11,14.27,25.56,18.09l0.73,0.19,0.73-.19C50.63,72.56,58,64.44,61.66,58.29a32.31,32.31,0,0,0,4.48-12.84V12.77ZM63.28,45.24S61.68,66.7,35.37,73.61C9.06,66.7,7.46,45.24,7.46,45.24V14.52C18.13,9,32.19,8.73,34.91,8.73h0.93c2.72,0,16.78.28,27.44,5.79V45.24Z"/><path d="M35.37,8.73H34.91c-2.72,0-16.78.28-27.44,5.79V45.24S9.06,66.7,35.37,73.61C61.68,66.7,63.28,45.24,63.28,45.24V14.52C52.61,9,38.55,8.73,35.84,8.73H35.37ZM60.24,40.88v3.71S58.82,63.72,35.37,69.87a41.47,41.47,0,0,1-8.63-3.28,32.26,32.26,0,0,1-8.63-6.41A27.93,27.93,0,0,1,10.5,44.59V17.21h0a39.84,39.84,0,0,1,7.61-2.91,61.28,61.28,0,0,1,8.63-1.7,65.56,65.56,0,0,1,8.63-.55s14.31-.3,24.87,5.16V40.88Z" style="fill:#bfbfbf"/><path d="M26.74,32.67V12.6a61.28,61.28,0,0,0-8.63,1.7V24.45Z"/><path d="M18.11,14.3a39.84,39.84,0,0,0-7.61,2.91l7.61,7.25V14.3Z" style="fill:#fdb515"/><polygon points="18.11 24.45 18.11 41.17 26.74 49.38 26.74 32.66 18.11 24.45" style="fill:#fdb515"/><polygon points="18.11 24.45 10.5 17.21 10.5 17.21 10.5 33.92 18.11 41.17 18.11 24.45"/><path d="M35.37,40.88V12.05a65.56,65.56,0,0,0-8.63.55V32.67Z" style="fill:#fdb515"/><polygon points="26.74 49.38 35.37 57.59 35.37 40.88 26.74 32.66 26.74 49.38"/><path d="M56.64,44.49H54v2a3.71,3.71,0,0,1-3.25,3.75,3.61,3.61,0,0,1-4-3.59V44.49H39V54h2a3.71,3.71,0,0,1,3.74,3.25,3.61,3.61,0,0,1-3.59,4H39v2.65a3.61,3.61,0,0,1-3.61,3.61v2.38c23.45-6.16,24.87-25.28,24.87-25.28V40.88A3.61,3.61,0,0,1,56.64,44.49Z" style="fill:#fff"/><path d="M35.37,57.59l-8.63-8.21V66.59a41.47,41.47,0,0,0,8.63,3.28V57.59Z" style="fill:#fdb515"/><path d="M35.37,12.05v2.21A3.61,3.61,0,0,1,39,17.87v2.65H41.1a3.61,3.61,0,0,1,3.59,4,3.71,3.71,0,0,1-3.74,3.25H39v9.54h7.8V35.15a3.61,3.61,0,0,1,4-3.59A3.71,3.71,0,0,1,54,35.31v2h2.65a3.61,3.61,0,0,1,3.61,3.61V17.21C49.68,11.75,35.37,12.05,35.37,12.05Z" style="fill:#da2128"/><path d="M18.11,41.17v19a32.26,32.26,0,0,0,8.63,6.41V49.38Z"/><path d="M10.5,33.92V44.59a27.93,27.93,0,0,0,7.61,15.59v-19Z" style="fill:#fdb515"/><path d="M56.64,37.27H54v-2a3.71,3.71,0,0,0-3.25-3.74,3.61,3.61,0,0,0-4,3.59v2.12H39V27.73h2a3.71,3.71,0,0,0,3.74-3.25,3.61,3.61,0,0,0-3.59-4H39V17.87a3.61,3.61,0,0,0-3.61-3.61V40.88H60.24A3.61,3.61,0,0,0,56.64,37.27Z" style="fill:#fff"/><path d="M35.37,57.59v9.9A3.61,3.61,0,0,0,39,63.89V61.24H41.1a3.61,3.61,0,0,0,3.59-4A3.71,3.71,0,0,0,40.94,54H39V44.49h7.8V46.6a3.61,3.61,0,0,0,4,3.59A3.71,3.71,0,0,0,54,46.45v-2h2.65a3.61,3.61,0,0,0,3.61-3.61H35.37V57.59Z" style="fill:#da2128"/><path d="M110.32,75.08c-4,0-11.56-.76-17-5.86C90,66,86.18,60.66,86.18,47.63V35.81c0-12.6,0-14.87-.16-17.45s-0.63-3.69-3.14-4.22a14.69,14.69,0,0,0-2.66-.23A1,1,0,0,1,79.14,13c0-1.08,1.21-1.08,1.72-1.08,2.51,0,5.68.12,7.57,0.19l1.73,0.06,1.94-.07h0.07c1.89-.07,4.43-0.17,6-0.17,0.52,0,1.72,0,1.72,1.08a1,1,0,0,1-1.08.91,11.57,11.57,0,0,0-1.91.23c-1.84.27-2.51,1.34-2.68,4.22-0.16,2.58-.16,4.85-0.16,17.45V47.14c0,12.35,3,16.88,5.94,19.67,3.84,3.61,7.41,4.33,11.92,4.33a16.49,16.49,0,0,0,12.37-5.67c3.22-4,4.59-9.84,4.59-19.55V35.81c0-12.6,0-14.87-.16-17.45s-0.63-3.69-3.14-4.22a14.68,14.68,0,0,0-2.66-.23,1,1,0,0,1-1.08-.91c0-1.08,1.21-1.08,1.72-1.08,2.67,0,5.77.13,7.43,0.2l1.15,0,1.3-.05h0.1c1.5-.07,3.75-0.18,5.39-0.18,0.52,0,1.72,0,1.72,1.08a1,1,0,0,1-1.08.91,6.67,6.67,0,0,0-1.92.23c-1.86.35-2.51,1.37-2.67,4.22-0.16,2.58-.16,4.85-0.16,17.45v8.66c0,15.76-4.05,21.38-7.59,24.51A24.25,24.25,0,0,1,110.32,75.08Z" style="fill:#231f20"/><path d="M233.53,74.19c-1.16,0-4.8-.19-7.46-0.33l-0.33,0c-1.54-.08-2.75-0.14-3-0.14l-1.33,0c-1.15,0-21.07.08-22.64,0.08-0.52,0-1.72,0-1.72-1.08a1,1,0,0,1,1.08-.91,11.83,11.83,0,0,0,2.33-.31c0.2,0,1.16-.35.82-2.73l-3.79-40.62L177.61,70.44c-1.31,2.77-1.58,3.35-2.49,3.35s-1.17-.7-2.72-3.63l-0.17-.32c-0.88-1.66-3.19-6.18-9.21-18.25l-0.26-.53c-0.77-1.53-8.32-17.73-10.29-22.15l-3.14,36.48c-0.08,1.27-.08,2.7-0.08,4.09A2.16,2.16,0,0,0,151,71.56a14.48,14.48,0,0,0,3,.4,1,1,0,0,1,1.08.83c0,1.16-1.32,1.16-1.89,1.16-2.06,0-4.48-.11-6.08-0.19H147l-1.33-.05-1.68.07h-0.13c-1.53.07-3.6,0.17-5,.17-1.2,0-1.8-.39-1.8-1.16A1.07,1.07,0,0,1,138.3,72a10,10,0,0,0,2.34-.23c2.28-.41,2.56-3.15,2.86-6l0-.3,5.83-52.76c0.1-.56.33-1.84,1.32-1.84a1.93,1.93,0,0,1,1.6,1.46l24.36,50.08,23.41-50c0.26-.57.69-1.54,1.6-1.54s1.25,1.21,1.4,2.57L208.47,63c0.3,2.69.8,7.16,4.07,8.21a9,9,0,0,0,4,.34c1.37-.41,1.7-2,2-4,0.4-3.37.4-9.6,0.4-17.5V35.81c0-12.6,0-14.87-.16-17.45s-0.64-3.69-3.14-4.22a14.68,14.68,0,0,0-2.66-.23,1,1,0,0,1-1.08-.91c0-1.08,1.21-1.08,1.72-1.08,2.68,0,6.24.14,7.95,0.2l0.42,0,0.78,0h0c0.82,0,1.88,0,3-.09,1.63-.07,3.64-0.15,5.8-0.15,13.11,0,16.61,7.9,16.61,12.57,0,6.61-3.79,10.75-7.25,14.37a23.06,23.06,0,0,1,8.77,5.58,16.61,16.61,0,0,1,4.87,11.69,17.35,17.35,0,0,1-5.26,12.37C245.5,72.22,240,74.19,233.53,74.19Zm-7.25-32.77s0,0.05,0,.13v4.61c0,6.08,0,16.25.08,17.45l0,0.32c0.22,3.69.28,4.56,2.49,5.63s6.18,1.17,6.93,1.17c5.07,0,11-2.9,11-11.06,0-3.17-.75-11.07-7.66-15.83a12.94,12.94,0,0,0-6.49-2.27c-0.72-.11-2.83-0.16-6.29-0.16h-0.05ZM230.7,15a17.89,17.89,0,0,0-3.78.39c-0.65.14-.65,0.28-0.65,0.47V37.59c0,0.37,0,.39.3,0.49a30.3,30.3,0,0,0,4.78.29c4.52,0,5.45-.14,7-2a12.09,12.09,0,0,0,2.81-7.89C241.2,22.31,238.45,15,230.7,15Z" style="fill:#231f20"/><path d="M292.84,75.08c-11.7,0-20.27-2.81-27-8.85S255.92,52.16,255.92,42a32.82,32.82,0,0,1,9.19-22.39c5.91-5.91,14.08-8.78,25-8.78a70.38,70.38,0,0,1,11.81,1l0.23,0a68,68,0,0,0,8,1.17,1.31,1.31,0,0,1,1.45,1.32,8.94,8.94,0,0,1-.1,1.05c-0.09.7-.21,1.75-0.31,3.5-0.09,1.53-.13,3.67-0.16,5.39,0,1.33,0,2.42-.08,2.95-0.05.84-.14,2.1-1.16,2.1s-1.08-1.18-1.08-2.13a10.83,10.83,0,0,0-3.25-7.93c-2.62-2.25-8.55-4.51-15.91-4.51-12.36,0-16.84,4.35-18.31,5.79-6.3,6-7.15,13.91-7.15,20.81a30,30,0,0,0,8,20.31,28.18,28.18,0,0,0,20.79,8.88c8.74,0,11.79-1.88,13.77-3.92,1.63-1.71,2.64-5.16,2.88-6.57,0.12-.67.29-1.57,1.23-1.57,0.3,0,1,.16,1,1.64a83,83,0,0,1-1.8,10.48,3.16,3.16,0,0,1-2.34,2.62C304.08,74.58,297.68,75.08,292.84,75.08Z" style="fill:#231f20"/></svg>